<svg width="16" height="16" viewBox="0 0 16 16" fill="none" xmlns="http://www.w3.org/2000/svg">
<g id="Frame">
<path id="Vector" fill-rule="evenodd" clip-rule="evenodd" d="M3.64665 3.64667C3.7404 3.55304 3.86749 3.50045 3.99999 3.50045C4.13249 3.50045 4.25957 3.55304 4.35332 3.64667L7.99999 7.29334L11.6467 3.64667C11.6924 3.59755 11.7476 3.55815 11.809 3.53082C11.8703 3.50349 11.9365 3.4888 12.0036 3.48761C12.0708 3.48643 12.1375 3.49878 12.1997 3.52392C12.262 3.54907 12.3185 3.5865 12.366 3.63398C12.4135 3.68146 12.4509 3.73802 12.4761 3.80027C12.5012 3.86253 12.5136 3.92922 12.5124 3.99635C12.5112 4.06349 12.4965 4.1297 12.4692 4.19103C12.4418 4.25236 12.4024 4.30756 12.3533 4.35334L8.70665 8.00001L12.3533 11.6467C12.4024 11.6924 12.4418 11.7476 12.4692 11.809C12.4965 11.8703 12.5112 11.9365 12.5124 12.0037C12.5136 12.0708 12.5012 12.1375 12.4761 12.1997C12.4509 12.262 12.4135 12.3186 12.366 12.366C12.3185 12.4135 12.262 12.4509 12.1997 12.4761C12.1375 12.5012 12.0708 12.5136 12.0036 12.5124C11.9365 12.5112 11.8703 12.4965 11.809 12.4692C11.7476 12.4419 11.6924 12.4025 11.6467 12.3533L7.99999 8.70667L4.35332 12.3533C4.25854 12.4417 4.13317 12.4897 4.00364 12.4875C3.8741 12.4852 3.75051 12.4327 3.65891 12.3411C3.5673 12.2495 3.51482 12.1259 3.51254 11.9964C3.51025 11.8668 3.55833 11.7415 3.64665 11.6467L7.29332 8.00001L3.64665 4.35334C3.55302 4.25959 3.50043 4.13251 3.50043 4.00001C3.50043 3.86751 3.55302 3.74042 3.64665 3.64667Z" fill="#334155"/>
</g>
</svg>
