<svg width="40" height="40" viewBox="0 0 40 40" fill="none" xmlns="http://www.w3.org/2000/svg">
<g filter="url(#filter0_d_11195_4428)">
<rect x="2" y="1" width="36" height="36" rx="8" fill="white"/>
<rect x="2.5" y="1.5" width="35" height="35" rx="7.5" stroke="#E2E8F0"/>
<g clip-path="url(#clip0_11195_4428)">
<path d="M25.9999 13.6667H23.9333C23.7785 12.9143 23.3691 12.2382 22.7741 11.7525C22.179 11.2667 21.4347 11.001 20.6666 11H19.3333C18.5651 11.001 17.8208 11.2667 17.2258 11.7525C16.6307 12.2382 16.2213 12.9143 16.0666 13.6667H13.9999C13.8231 13.6667 13.6535 13.7369 13.5285 13.8619C13.4035 13.987 13.3333 14.1565 13.3333 14.3333C13.3333 14.5101 13.4035 14.6797 13.5285 14.8047C13.6535 14.9298 13.8231 15 13.9999 15H14.6666V23.6667C14.6676 24.5504 15.0192 25.3976 15.6441 26.0225C16.269 26.6474 17.1162 26.9989 17.9999 27H21.9999C22.8836 26.9989 23.7309 26.6474 24.3558 26.0225C24.9807 25.3976 25.3322 24.5504 25.3333 23.6667V15H25.9999C26.1767 15 26.3463 14.9298 26.4713 14.8047C26.5963 14.6797 26.6666 14.5101 26.6666 14.3333C26.6666 14.1565 26.5963 13.987 26.4713 13.8619C26.3463 13.7369 26.1767 13.6667 25.9999 13.6667ZM19.3333 12.3333H20.6666C21.0801 12.3338 21.4833 12.4623 21.821 12.701C22.1587 12.9397 22.4142 13.277 22.5526 13.6667H17.4473C17.5856 13.277 17.8412 12.9397 18.1788 12.701C18.5165 12.4623 18.9197 12.3338 19.3333 12.3333ZM23.9999 23.6667C23.9999 24.1971 23.7892 24.7058 23.4141 25.0809C23.0391 25.456 22.5304 25.6667 21.9999 25.6667H17.9999C17.4695 25.6667 16.9608 25.456 16.5857 25.0809C16.2106 24.7058 15.9999 24.1971 15.9999 23.6667V15H23.9999V23.6667Z" fill="#334155"/>
<path d="M18.6667 22.9996C18.8435 22.9996 19.013 22.9293 19.1381 22.8043C19.2631 22.6793 19.3333 22.5097 19.3333 22.3329V18.3329C19.3333 18.1561 19.2631 17.9865 19.1381 17.8615C19.013 17.7365 18.8435 17.6662 18.6667 17.6662C18.4899 17.6662 18.3203 17.7365 18.1953 17.8615C18.0702 17.9865 18 18.1561 18 18.3329V22.3329C18 22.5097 18.0702 22.6793 18.1953 22.8043C18.3203 22.9293 18.4899 22.9996 18.6667 22.9996Z" fill="#334155"/>
<path d="M21.3333 22.9996C21.5101 22.9996 21.6797 22.9293 21.8047 22.8043C21.9297 22.6793 22 22.5097 22 22.3329V18.3329C22 18.1561 21.9297 17.9865 21.8047 17.8615C21.6797 17.7365 21.5101 17.6662 21.3333 17.6662C21.1565 17.6662 20.9869 17.7365 20.8619 17.8615C20.7369 17.9865 20.6666 18.1561 20.6666 18.3329V22.3329C20.6666 22.5097 20.7369 22.6793 20.8619 22.8043C20.9869 22.9293 21.1565 22.9996 21.3333 22.9996Z" fill="#334155"/>
</g>
</g>
<defs>
<filter id="filter0_d_11195_4428" x="0" y="0" width="40" height="40" filterUnits="userSpaceOnUse" color-interpolation-filters="sRGB">
<feFlood flood-opacity="0" result="BackgroundImageFix"/>
<feColorMatrix in="SourceAlpha" type="matrix" values="0 0 0 0 0 0 0 0 0 0 0 0 0 0 0 0 0 0 127 0" result="hardAlpha"/>
<feOffset dy="1"/>
<feGaussianBlur stdDeviation="1"/>
<feComposite in2="hardAlpha" operator="out"/>
<feColorMatrix type="matrix" values="0 0 0 0 0 0 0 0 0 0 0 0 0 0 0 0 0 0 0.05 0"/>
<feBlend mode="normal" in2="BackgroundImageFix" result="effect1_dropShadow_11195_4428"/>
<feBlend mode="normal" in="SourceGraphic" in2="effect1_dropShadow_11195_4428" result="shape"/>
</filter>
<clipPath id="clip0_11195_4428">
<rect width="16" height="16" fill="white" transform="translate(12 11)"/>
</clipPath>
</defs>
</svg>
