<svg width="16" height="16" viewBox="0 0 16 16" fill="none" xmlns="http://www.w3.org/2000/svg">
<path d="M3.69332 13.0133C3.28666 13.0133 2.90666 12.8733 2.63332 12.6133C2.28666 12.2867 2.11999 11.7933 2.17999 11.26L2.42666 9.09999C2.47332 8.69333 2.71999 8.15333 3.00666 7.85999L8.47999 2.06666C9.84666 0.619992 11.2733 0.579992 12.72 1.94666C14.1667 3.31333 14.2067 4.73999 12.84 6.18666L7.36666 11.98C7.08666 12.28 6.56666 12.56 6.15999 12.6267L4.01332 12.9933C3.89999 13 3.79999 13.0133 3.69332 13.0133ZM10.62 1.93999C10.1067 1.93999 9.65999 2.25999 9.20666 2.73999L3.73332 8.53999C3.59999 8.67999 3.44666 9.01333 3.41999 9.20666L3.17332 11.3667C3.14666 11.5867 3.19999 11.7667 3.31999 11.88C3.43999 11.9933 3.61999 12.0333 3.83999 12L5.98666 11.6333C6.17999 11.6 6.49999 11.4267 6.63332 11.2867L12.1067 5.49333C12.9333 4.61333 13.2333 3.79999 12.0267 2.66666C11.4933 2.15333 11.0333 1.93999 10.62 1.93999Z" fill="#2563EB"/>
<path d="M11.56 7.30001C11.5466 7.30001 11.5266 7.30001 11.5133 7.30001C9.4333 7.09334 7.75996 5.51334 7.43996 3.44668C7.39996 3.17334 7.58663 2.92001 7.85996 2.87334C8.1333 2.83334 8.38663 3.02001 8.4333 3.29334C8.68663 4.90668 9.9933 6.14668 11.62 6.30668C11.8933 6.33334 12.0933 6.58001 12.0666 6.85334C12.0333 7.10668 11.8133 7.30001 11.56 7.30001Z" fill="#2563EB"/>
<path d="M14 15.1667H2C1.72667 15.1667 1.5 14.94 1.5 14.6667C1.5 14.3933 1.72667 14.1667 2 14.1667H14C14.2733 14.1667 14.5 14.3933 14.5 14.6667C14.5 14.94 14.2733 15.1667 14 15.1667Z" fill="#2563EB"/>
</svg>
