<svg width="291" height="45" viewBox="0 0 291 45" fill="none" xmlns="http://www.w3.org/2000/svg">
<rect y="0.5" width="291" height="44" rx="12" fill="#2563EB"/>
<path d="M88.2867 29.6666C88.0067 29.6666 87.7467 29.6 87.5133 29.4666C87 29.1666 86.7067 28.56 86.7067 27.8066V18.4066C86.7067 16.7133 88.0867 15.3333 89.78 15.3333H96.2133C97.9067 15.3333 99.2867 16.7133 99.2867 18.4066V27.8C99.2867 28.5533 98.9933 29.16 98.48 29.46C97.9667 29.76 97.2933 29.7266 96.6333 29.36L93.38 27.5533C93.1867 27.4466 92.8067 27.4466 92.6133 27.5533L89.36 29.36C89 29.56 88.6333 29.6666 88.2867 29.6666ZM89.7867 16.3333C88.6467 16.3333 87.7133 17.2666 87.7133 18.4066V27.8C87.7133 28.1933 87.8267 28.4866 88.0267 28.6C88.2267 28.72 88.54 28.68 88.88 28.4866L92.1333 26.68C92.6267 26.4066 93.3733 26.4066 93.8667 26.68L97.12 28.4866C97.46 28.68 97.7733 28.72 97.9733 28.6C98.1733 28.48 98.2867 28.1866 98.2867 27.8V18.4066C98.2867 17.2666 97.3533 16.3333 96.2133 16.3333H89.7867Z" fill="white"/>
<path d="M117.929 19.9929C117.876 19.5223 117.657 19.1577 117.272 18.8991C116.888 18.6373 116.404 18.5064 115.821 18.5064C115.403 18.5064 115.042 18.5727 114.737 18.7053C114.432 18.8345 114.195 19.0135 114.026 19.2422C113.86 19.4676 113.777 19.7244 113.777 20.0128C113.777 20.2547 113.834 20.4635 113.946 20.6392C114.062 20.8149 114.213 20.9624 114.399 21.0817C114.588 21.1977 114.79 21.2955 115.005 21.375C115.221 21.4512 115.428 21.5142 115.627 21.5639L116.621 21.8224C116.946 21.902 117.279 22.0097 117.62 22.1456C117.962 22.2815 118.278 22.4605 118.57 22.6825C118.862 22.9046 119.097 23.1797 119.276 23.5078C119.458 23.8359 119.549 24.2287 119.549 24.6861C119.549 25.2628 119.4 25.7749 119.102 26.2223C118.807 26.6697 118.378 27.0227 117.814 27.2812C117.254 27.5398 116.576 27.669 115.781 27.669C115.019 27.669 114.359 27.5481 113.802 27.3061C113.245 27.0642 112.81 26.7211 112.495 26.277C112.18 25.8295 112.006 25.2992 111.973 24.6861H113.514C113.544 25.054 113.663 25.3606 113.872 25.6058C114.084 25.8478 114.354 26.0284 114.682 26.1477C115.014 26.2637 115.377 26.3217 115.771 26.3217C116.205 26.3217 116.591 26.2538 116.929 26.1179C117.271 25.9787 117.539 25.7865 117.735 25.5412C117.93 25.2926 118.028 25.0026 118.028 24.6712C118.028 24.3696 117.942 24.1226 117.77 23.9304C117.601 23.7382 117.37 23.5791 117.079 23.4531C116.79 23.3272 116.464 23.2161 116.099 23.12L114.896 22.7919C114.081 22.5698 113.434 22.2434 112.957 21.8125C112.483 21.3816 112.246 20.8116 112.246 20.1023C112.246 19.5156 112.405 19.0036 112.723 18.5661C113.042 18.1286 113.473 17.7888 114.016 17.5469C114.56 17.3016 115.173 17.179 115.856 17.179C116.545 17.179 117.153 17.3 117.68 17.5419C118.21 17.7839 118.628 18.117 118.933 18.5412C119.238 18.9621 119.397 19.446 119.41 19.9929H117.929ZM123.488 27.669C123.004 27.669 122.567 27.5795 122.176 27.4006C121.785 27.2183 121.475 26.9548 121.246 26.6101C121.021 26.2654 120.908 25.8428 120.908 25.3423C120.908 24.9115 120.991 24.5568 121.157 24.2784C121.322 24 121.546 23.7796 121.828 23.6172C122.109 23.4548 122.424 23.3321 122.772 23.2493C123.12 23.1664 123.475 23.1035 123.836 23.0604C124.294 23.0073 124.665 22.9643 124.95 22.9311C125.235 22.8946 125.442 22.8366 125.571 22.7571C125.701 22.6776 125.765 22.5483 125.765 22.3693V22.3345C125.765 21.9003 125.643 21.5639 125.397 21.3253C125.155 21.0866 124.794 20.9673 124.313 20.9673C123.813 20.9673 123.419 21.0784 123.13 21.3004C122.845 21.5192 122.648 21.7628 122.539 22.0312L121.142 21.7131C121.307 21.2491 121.549 20.8745 121.867 20.5895C122.189 20.3011 122.559 20.0923 122.976 19.9631C123.394 19.8305 123.833 19.7642 124.294 19.7642C124.599 19.7642 124.922 19.8007 125.263 19.8736C125.608 19.9432 125.929 20.0724 126.228 20.2614C126.529 20.4503 126.776 20.7204 126.968 21.0717C127.161 21.4197 127.257 21.8722 127.257 22.429V27.5H125.805V26.456H125.745C125.649 26.6482 125.505 26.8371 125.313 27.0227C125.121 27.2083 124.874 27.3625 124.572 27.4851C124.27 27.6077 123.909 27.669 123.488 27.669ZM123.811 26.4759C124.222 26.4759 124.574 26.3946 124.865 26.2322C125.16 26.0698 125.384 25.8577 125.536 25.5959C125.692 25.3307 125.77 25.0473 125.77 24.7457V23.7614C125.717 23.8144 125.614 23.8641 125.462 23.9105C125.313 23.9536 125.142 23.9917 124.95 24.0249C124.758 24.0547 124.57 24.0829 124.388 24.1094C124.206 24.1326 124.053 24.1525 123.931 24.169C123.642 24.2055 123.379 24.2668 123.14 24.353C122.905 24.4392 122.716 24.5634 122.573 24.7259C122.434 24.8849 122.365 25.0971 122.365 25.3622C122.365 25.7301 122.501 26.0085 122.772 26.1974C123.044 26.383 123.39 26.4759 123.811 26.4759ZM135.496 19.8636L132.727 27.5H131.136L128.362 19.8636H129.957L131.891 25.7401H131.971L133.9 19.8636H135.496ZM139.924 27.6541C139.172 27.6541 138.524 27.4934 137.98 27.1719C137.44 26.8471 137.023 26.3913 136.728 25.8047C136.436 25.2147 136.29 24.5237 136.29 23.7315C136.29 22.9493 136.436 22.2599 136.728 21.6634C137.023 21.0668 137.434 20.6011 137.96 20.2663C138.491 19.9316 139.111 19.7642 139.82 19.7642C140.251 19.7642 140.668 19.8355 141.073 19.978C141.477 20.1205 141.84 20.3442 142.161 20.6491C142.483 20.9541 142.737 21.3501 142.922 21.8374C143.108 22.3213 143.201 22.9096 143.201 23.6023V24.1293H137.13V23.0156H141.744C141.744 22.6245 141.664 22.2782 141.505 21.9766C141.346 21.6716 141.122 21.4313 140.834 21.2557C140.549 21.08 140.214 20.9922 139.83 20.9922C139.412 20.9922 139.048 21.0949 138.736 21.3004C138.428 21.5026 138.189 21.7678 138.02 22.0959C137.854 22.4207 137.772 22.7737 137.772 23.1548V24.0249C137.772 24.5353 137.861 24.9695 138.04 25.3274C138.222 25.6854 138.476 25.9588 138.801 26.1477C139.126 26.3333 139.505 26.4261 139.939 26.4261C140.221 26.4261 140.478 26.3864 140.71 26.3068C140.942 26.224 141.142 26.1013 141.311 25.9389C141.48 25.7765 141.61 25.576 141.699 25.3374L143.106 25.5909C142.993 26.0052 142.791 26.3681 142.5 26.6797C142.211 26.9879 141.848 27.2282 141.411 27.4006C140.977 27.5696 140.481 27.6541 139.924 27.6541ZM153.71 30.3636V26.3118H153.621C153.532 26.4742 153.402 26.6598 153.233 26.8686C153.068 27.0774 152.839 27.2597 152.547 27.4155C152.255 27.5713 151.878 27.6491 151.414 27.6491C150.797 27.6491 150.247 27.4917 149.763 27.1768C149.282 26.8587 148.905 26.4062 148.63 25.8196C148.358 25.2296 148.222 24.522 148.222 23.6967C148.222 22.8714 148.359 22.1655 148.634 21.5788C148.913 20.9922 149.294 20.5431 149.778 20.2315C150.262 19.92 150.81 19.7642 151.424 19.7642C151.898 19.7642 152.279 19.8438 152.567 20.0028C152.859 20.1586 153.084 20.3409 153.243 20.5497C153.406 20.7585 153.532 20.9425 153.621 21.1016H153.745V19.8636H155.197V30.3636H153.71ZM151.742 26.3814C152.169 26.3814 152.531 26.2687 152.826 26.0433C153.124 25.8146 153.349 25.4981 153.502 25.0938C153.657 24.6894 153.735 24.2187 153.735 23.6818C153.735 23.1515 153.659 22.6875 153.507 22.2898C153.354 21.892 153.13 21.5821 152.835 21.3601C152.541 21.138 152.176 21.027 151.742 21.027C151.294 21.027 150.921 21.143 150.623 21.375C150.325 21.607 150.099 21.9235 149.947 22.3246C149.798 22.7256 149.723 23.178 149.723 23.6818C149.723 24.1922 149.8 24.6513 149.952 25.0589C150.104 25.4666 150.33 25.7898 150.628 26.0284C150.93 26.2637 151.301 26.3814 151.742 26.3814ZM162.033 24.3331V19.8636H163.524V27.5H162.063V26.1776H161.983C161.808 26.5852 161.526 26.925 161.138 27.1967C160.754 27.4652 160.275 27.5994 159.701 27.5994C159.211 27.5994 158.777 27.4917 158.399 27.2763C158.024 27.0575 157.729 26.7344 157.514 26.3068C157.302 25.8793 157.196 25.3506 157.196 24.7209V19.8636H158.682V24.5419C158.682 25.0623 158.826 25.4766 159.115 25.7848C159.403 26.093 159.777 26.2472 160.238 26.2472C160.517 26.2472 160.793 26.1776 161.068 26.0384C161.347 25.8991 161.577 25.6887 161.759 25.407C161.945 25.1252 162.036 24.7673 162.033 24.3331ZM168.813 27.6541C168.061 27.6541 167.413 27.4934 166.869 27.1719C166.329 26.8471 165.911 26.3913 165.616 25.8047C165.325 25.2147 165.179 24.5237 165.179 23.7315C165.179 22.9493 165.325 22.2599 165.616 21.6634C165.911 21.0668 166.322 20.6011 166.849 20.2663C167.379 19.9316 167.999 19.7642 168.709 19.7642C169.139 19.7642 169.557 19.8355 169.961 19.978C170.366 20.1205 170.729 20.3442 171.05 20.6491C171.372 20.9541 171.625 21.3501 171.811 21.8374C171.996 22.3213 172.089 22.9096 172.089 23.6023V24.1293H166.019V23.0156H170.633C170.633 22.6245 170.553 22.2782 170.394 21.9766C170.235 21.6716 170.011 21.4313 169.723 21.2557C169.438 21.08 169.103 20.9922 168.718 20.9922C168.301 20.9922 167.936 21.0949 167.625 21.3004C167.316 21.5026 167.078 21.7678 166.909 22.0959C166.743 22.4207 166.66 22.7737 166.66 23.1548V24.0249C166.66 24.5353 166.75 24.9695 166.929 25.3274C167.111 25.6854 167.365 25.9588 167.689 26.1477C168.014 26.3333 168.394 26.4261 168.828 26.4261C169.11 26.4261 169.366 26.3864 169.598 26.3068C169.83 26.224 170.031 26.1013 170.2 25.9389C170.369 25.7765 170.498 25.576 170.588 25.3374L171.995 25.5909C171.882 26.0052 171.68 26.3681 171.388 26.6797C171.1 26.9879 170.737 27.2282 170.299 27.4006C169.865 27.5696 169.37 27.6541 168.813 27.6541ZM179.461 21.728L178.114 21.9666C178.057 21.7943 177.968 21.6302 177.845 21.4744C177.726 21.3187 177.563 21.1911 177.358 21.0916C177.152 20.9922 176.896 20.9425 176.587 20.9425C176.166 20.9425 175.815 21.0369 175.533 21.2259C175.252 21.4115 175.111 21.6518 175.111 21.9467C175.111 22.2019 175.205 22.4074 175.394 22.5632C175.583 22.719 175.888 22.8466 176.309 22.946L177.522 23.2244C178.225 23.3868 178.748 23.6371 179.093 23.9751C179.438 24.3132 179.61 24.7524 179.61 25.2926C179.61 25.75 179.477 26.1577 179.212 26.5156C178.95 26.8703 178.584 27.1487 178.114 27.3509C177.646 27.553 177.104 27.6541 176.488 27.6541C175.633 27.6541 174.935 27.4718 174.395 27.1072C173.855 26.7393 173.523 26.2173 173.4 25.5412L174.837 25.3224C174.927 25.697 175.111 25.9804 175.389 26.1726C175.668 26.3615 176.03 26.456 176.478 26.456C176.965 26.456 177.355 26.3549 177.646 26.1527C177.938 25.9472 178.084 25.697 178.084 25.402C178.084 25.1634 177.994 24.9628 177.815 24.8004C177.64 24.638 177.369 24.5154 177.005 24.4325L175.712 24.1491C175 23.9867 174.473 23.7282 174.131 23.3736C173.793 23.0189 173.624 22.5698 173.624 22.0263C173.624 21.5755 173.75 21.1811 174.002 20.843C174.254 20.505 174.602 20.2415 175.046 20.0526C175.49 19.8603 175.999 19.7642 176.572 19.7642C177.398 19.7642 178.047 19.9432 178.521 20.3011C178.995 20.6558 179.308 21.1314 179.461 21.728ZM184.809 19.8636V21.0568H180.638V19.8636H184.809ZM181.756 18.0341H183.243V25.2578C183.243 25.5462 183.286 25.7633 183.372 25.9091C183.458 26.0516 183.569 26.1494 183.705 26.2024C183.845 26.2521 183.995 26.277 184.158 26.277C184.277 26.277 184.381 26.2687 184.471 26.2521C184.56 26.2356 184.63 26.2223 184.68 26.2124L184.948 27.4403C184.862 27.4735 184.739 27.5066 184.58 27.5398C184.421 27.5762 184.222 27.5961 183.984 27.5994C183.593 27.6061 183.228 27.5365 182.89 27.3906C182.552 27.2448 182.278 27.0194 182.07 26.7145C181.861 26.4096 181.756 26.0268 181.756 25.5661V18.0341ZM186.453 27.5V19.8636H187.94V27.5H186.453ZM187.204 18.6854C186.946 18.6854 186.724 18.5992 186.538 18.4268C186.356 18.2512 186.264 18.0424 186.264 17.8004C186.264 17.5552 186.356 17.3464 186.538 17.174C186.724 16.9983 186.946 16.9105 187.204 16.9105C187.463 16.9105 187.683 16.9983 187.865 17.174C188.051 17.3464 188.144 17.5552 188.144 17.8004C188.144 18.0424 188.051 18.2512 187.865 18.4268C187.683 18.5992 187.463 18.6854 187.204 18.6854ZM193.156 27.6541C192.44 27.6541 191.816 27.4901 191.282 27.1619C190.748 26.8338 190.334 26.3748 190.039 25.7848C189.744 25.1948 189.597 24.5054 189.597 23.7166C189.597 22.9245 189.744 22.2318 190.039 21.6385C190.334 21.0452 190.748 20.5845 191.282 20.2564C191.816 19.9283 192.44 19.7642 193.156 19.7642C193.872 19.7642 194.497 19.9283 195.031 20.2564C195.564 20.5845 195.979 21.0452 196.274 21.6385C196.569 22.2318 196.716 22.9245 196.716 23.7166C196.716 24.5054 196.569 25.1948 196.274 25.7848C195.979 26.3748 195.564 26.8338 195.031 27.1619C194.497 27.4901 193.872 27.6541 193.156 27.6541ZM193.161 26.4062C193.625 26.4062 194.01 26.2836 194.315 26.0384C194.62 25.7931 194.845 25.4666 194.991 25.0589C195.14 24.6513 195.215 24.2022 195.215 23.7116C195.215 23.2244 195.14 22.777 194.991 22.3693C194.845 21.9583 194.62 21.6286 194.315 21.38C194.01 21.1314 193.625 21.0071 193.161 21.0071C192.694 21.0071 192.306 21.1314 191.998 21.38C191.693 21.6286 191.466 21.9583 191.317 22.3693C191.171 22.777 191.098 23.2244 191.098 23.7116C191.098 24.2022 191.171 24.6513 191.317 25.0589C191.466 25.4666 191.693 25.7931 191.998 26.0384C192.306 26.2836 192.694 26.4062 193.161 26.4062ZM199.862 22.9659V27.5H198.375V19.8636H199.802V21.1065H199.897C200.072 20.7022 200.347 20.3774 200.722 20.1321C201.1 19.8868 201.575 19.7642 202.149 19.7642C202.669 19.7642 203.125 19.8736 203.516 20.0923C203.907 20.3078 204.21 20.6293 204.426 21.0568C204.641 21.4844 204.749 22.013 204.749 22.6428V27.5H203.262V22.8217C203.262 22.2682 203.118 21.8357 202.83 21.5241C202.541 21.2093 202.145 21.0518 201.642 21.0518C201.297 21.0518 200.99 21.1264 200.722 21.2756C200.457 21.4247 200.246 21.6435 200.09 21.9318C199.938 22.2169 199.862 22.5616 199.862 22.9659Z" fill="white"/>
</svg>
